<?xml version="1.0" encoding="UTF-8"?>
<svg xmlns="http://www.w3.org/2000/svg" version="1.1" xmlns:xlink="http://www.w3.org/1999/xlink" viewBox="0 0 160 160">
  <!-- Generator: Adobe Illustrator 29.5.1, SVG Export Plug-In . SVG Version: 2.1.0 Build 141)  -->
  <defs>
    <style>
      .st0 {
        fill: url(#linear-gradient1);
      }
    </style>
    <linearGradient id="linear-gradient1" x1="80" y1="8.5" x2="80" y2="151.5" gradientUnits="userSpaceOnUse">
      <stop offset=".0893855" stop-color="#0c0"/>
      <stop offset=".3156425" stop-color="#090"/>
    </linearGradient>
  </defs>
  <g id="available">
    <path class="st0" d="M80,151.5c-39.425293,0-71.5-32.0751953-71.5-71.5C8.5,40.574707,40.574707,8.5,80,8.5c39.4248047,0,71.5,32.074707,71.5,71.5,0,39.4248047-32.0751953,71.5-71.5,71.5Z"/>
    <path d="M80,12c37.4953232,0,68,30.5046768,68,68s-30.5046768,68-68,68S12,117.4953232,12,80,42.5046768,12,80,12M80,5C38.5786438,5,5,38.5786438,5,80s33.5786438,75,75,75,75-33.5786438,75-75S121.4213562,5,80,5h0Z"/>
  </g>
</svg>